<svg xmlns="http://www.w3.org/2000/svg" width="16" height="16" fill="none" class="shrink-0 w-4 h-4 text-content-destroy" viewBox="0 0 16 16"><g filter="url(#a)"><g filter="url(#b)"><path fill="#dc2626" d="M11.778 1.778H4.222a2.446 2.446 0 0 0-2.444 2.444v7.556a2.446 2.446 0 0 0 2.444 2.444h7.556a2.446 2.446 0 0 0 2.444-2.444V4.222a2.446 2.446 0 0 0-2.444-2.444m-4.445 3.05a.667.667 0 0 1 1.334 0v3.679a.667.667 0 0 1-1.334 0v-3.68ZM8 11.926a.89.89 0 0 1 0-1.777.89.89 0 0 1 0 1.777"/></g></g><defs><filter id="a" width="16" height="16" x="0" y="0" color-interpolation-filters="sRGB" filterUnits="userSpaceOnUse"><feFlood flood-opacity="0" result="BackgroundImageFix"/><feBlend in="SourceGraphic" in2="BackgroundImageFix" result="shape"/><feColorMatrix in="SourceAlpha" result="hardAlpha" values="0 0 0 0 0 0 0 0 0 0 0 0 0 0 0 0 0 0 127 0"/><feOffset dy=".4"/><feComposite in2="hardAlpha" k2="-1" k3="1" operator="arithmetic"/><feColorMatrix values="0 0 0 0 0 0 0 0 0 0 0 0 0 0 0 0 0 0 0.25 0"/><feBlend in2="shape" result="effect1_innerShadow_2233_6891"/></filter><filter id="b" width="12.444" height="12.444" x="1.778" y="1.778" color-interpolation-filters="sRGB" filterUnits="userSpaceOnUse"><feFlood flood-opacity="0" result="BackgroundImageFix"/><feBlend in="SourceGraphic" in2="BackgroundImageFix" result="shape"/><feColorMatrix in="SourceAlpha" result="hardAlpha" values="0 0 0 0 0 0 0 0 0 0 0 0 0 0 0 0 0 0 127 0"/><feOffset dy=".4"/><feComposite in2="hardAlpha" k2="-1" k3="1" operator="arithmetic"/><feColorMatrix values="0 0 0 0 0 0 0 0 0 0 0 0 0 0 0 0 0 0 0.25 0"/><feBlend in2="shape" result="effect1_innerShadow_2233_6891"/></filter></defs></svg>
